/* XPM */
static char * external_thread_xpm[] = {
"16 16 9 1",
" 	c #FFFFFF",
".	c #000000",
"+	c #2597FB",
"@	c #2494F7",
"#	c #3C98F6",
"$	c #080808",
"%	c #2493F4",
"&	c #388FE7",
"*	c #2495F7",
"       ..       ",
"     ......     ",
"    ..++++..    ",
"   ..++++++..   ",
"   ...@+++...   ",
"   .+......#.   ",
"   .+.+..+.+.   ",
"   .+.++++.+.   ",
"   .+.++++.+.   ",
"   $+.++++.+.   ",
"   ...%+++...   ",
"   .+......+.   ",
"   .+%&..+*+.   ",
"   .++++++++.   ",
"   .++++++++.   ",
"      ++++      "};
