/* XPM */
static char * aaa_xpm[] = {
"16 16 4 1",
" 	c None",
".	c #000000",
"+	c #C2C2C2",
"@	c #0000FF",
"                ",
" .............. ",
" +.@@.   .@@.++ ",
" +.@@.   .@@.++ ",
" +.@@.   .@@.++ ",
" +.@@.   .@@.++ ",
" +.@@.   .@@.++ ",
" +.@@.   .@@.++ ",
" +...........++ ",
" ++++.   .+++++ ",
" ++++.   .+++++ ",
" ++++.   .+++++ ",
" ++++.   .+++++ ",
" +++++. .++++++ ",
" ++++++.+++++++ ",
"                "};
